<svg width="84" height="43" viewBox="0 0 84 43" fill="none" xmlns="http://www.w3.org/2000/svg">
<path d="M6.21289 35.5146C9.38477 35.5146 11.7637 34.7122 13.3496 33.1074C14.9544 31.5026 15.9173 29.152 16.2383 26.0557C15.4642 26.8486 14.6051 27.4811 13.6611 27.9531C12.7171 28.4251 11.7165 28.6611 10.6592 28.6611C9.0166 28.6611 7.56283 28.3118 6.29785 27.6133C5.03288 26.9147 3.97559 25.9518 3.12598 24.7246C2.27637 23.4785 1.63444 22.0059 1.2002 20.3066C0.765951 18.6074 0.548828 16.7666 0.548828 14.7842C0.548828 12.7829 0.822591 10.9043 1.37012 9.14844C1.93652 7.3737 2.72949 5.82552 3.74902 4.50391C4.78743 3.18229 6.04297 2.13444 7.51562 1.36035C8.98828 0.586263 10.6309 0.199219 12.4434 0.199219C14.2181 0.199219 15.8418 0.605143 17.3145 1.41699C18.7871 2.20996 20.0426 3.34277 21.0811 4.81543C22.1195 6.28809 22.9219 8.06283 23.4883 10.1396C24.0736 12.1976 24.3662 14.4915 24.3662 17.0215V19.9102C24.3662 23.3086 23.9886 26.3955 23.2334 29.1709C22.4782 31.9274 21.3454 34.2969 19.835 36.2793C18.3245 38.2428 16.4365 39.7627 14.1709 40.8389C11.9242 41.8962 9.2998 42.4248 6.29785 42.4248H5.78809V35.5146H6.21289ZM12.6982 22.374C13.5101 22.374 14.2275 22.0719 14.8506 21.4678C15.4736 20.8636 15.974 20.1084 16.3516 19.2021V15.5205C16.3516 14.0667 16.2477 12.8018 16.04 11.7256C15.8324 10.6305 15.5397 9.72428 15.1621 9.00684C14.8034 8.28939 14.3786 7.7513 13.8877 7.39258C13.4157 7.03385 12.9154 6.85449 12.3867 6.85449C11.7637 6.85449 11.2067 7.08105 10.7158 7.53418C10.2438 7.96842 9.84733 8.55371 9.52637 9.29004C9.2054 10.0075 8.95996 10.8382 8.79004 11.7822C8.62012 12.7262 8.53516 13.6986 8.53516 14.6992C8.53516 15.7565 8.61068 16.7477 8.76172 17.6729C8.93164 18.598 9.18652 19.4098 9.52637 20.1084C9.86621 20.807 10.3005 21.3639 10.8291 21.7793C11.3577 22.1758 11.9808 22.374 12.6982 22.374ZM53.9893 24.9512C53.9893 28.0475 53.6966 30.7096 53.1113 32.9375C52.526 35.1465 51.7048 36.9684 50.6475 38.4033C49.5902 39.8193 48.3252 40.8672 46.8525 41.5469C45.3988 42.2266 43.7939 42.5664 42.0381 42.5664C40.2822 42.5664 38.668 42.2266 37.1953 41.5469C35.7227 40.8672 34.4577 39.8193 33.4004 38.4033C32.3431 36.9684 31.5124 35.1465 30.9082 32.9375C30.3229 30.7096 30.0303 28.0475 30.0303 24.9512V17.7578C30.0303 14.6803 30.3229 12.0371 30.9082 9.82812C31.4935 7.60026 32.3148 5.77832 33.3721 4.3623C34.4294 2.92741 35.6849 1.87956 37.1387 1.21875C38.6113 0.539062 40.2256 0.199219 41.9814 0.199219C43.7373 0.199219 45.3516 0.539062 46.8242 1.21875C48.2969 1.87956 49.5618 2.92741 50.6191 4.3623C51.6764 5.77832 52.4977 7.60026 53.083 9.82812C53.6872 12.0371 53.9893 14.6803 53.9893 17.7578V24.9512ZM45.9463 16.5967C45.9463 14.7842 45.8519 13.2643 45.6631 12.0371C45.4743 10.791 45.21 9.79036 44.8701 9.03516C44.5303 8.26107 44.1149 7.7041 43.624 7.36426C43.1331 7.02441 42.5856 6.85449 41.9814 6.85449C41.3773 6.85449 40.8298 7.02441 40.3389 7.36426C39.848 7.7041 39.4326 8.26107 39.0928 9.03516C38.7529 9.79036 38.4886 10.791 38.2998 12.0371C38.111 13.2643 38.0166 14.7842 38.0166 16.5967V26.0557C38.0166 27.887 38.111 29.4352 38.2998 30.7002C38.4886 31.9463 38.7529 32.9564 39.0928 33.7305C39.4515 34.5046 39.8763 35.0615 40.3672 35.4014C40.8581 35.7412 41.415 35.9111 42.0381 35.9111C42.6423 35.9111 43.1803 35.7412 43.6523 35.4014C44.1432 35.0615 44.5586 34.5046 44.8984 33.7305C45.2383 32.9564 45.4932 31.9463 45.6631 30.7002C45.8519 29.4352 45.9463 27.887 45.9463 26.0557V16.5967ZM83.3291 24.9512C83.3291 28.0475 83.0365 30.7096 82.4512 32.9375C81.8659 35.1465 81.0446 36.9684 79.9873 38.4033C78.93 39.8193 77.665 40.8672 76.1924 41.5469C74.7386 42.2266 73.1338 42.5664 71.3779 42.5664C69.6221 42.5664 68.0078 42.2266 66.5352 41.5469C65.0625 40.8672 63.7975 39.8193 62.7402 38.4033C61.6829 36.9684 60.8522 35.1465 60.248 32.9375C59.6628 30.7096 59.3701 28.0475 59.3701 24.9512V17.7578C59.3701 14.6803 59.6628 12.0371 60.248 9.82812C60.8333 7.60026 61.6546 5.77832 62.7119 4.3623C63.7692 2.92741 65.0247 1.87956 66.4785 1.21875C67.9512 0.539062 69.5654 0.199219 71.3213 0.199219C73.0771 0.199219 74.6914 0.539062 76.1641 1.21875C77.6367 1.87956 78.9017 2.92741 79.959 4.3623C81.0163 5.77832 81.8376 7.60026 82.4229 9.82812C83.027 12.0371 83.3291 14.6803 83.3291 17.7578V24.9512ZM75.2861 16.5967C75.2861 14.7842 75.1917 13.2643 75.0029 12.0371C74.8141 10.791 74.5498 9.79036 74.21 9.03516C73.8701 8.26107 73.4548 7.7041 72.9639 7.36426C72.473 7.02441 71.9255 6.85449 71.3213 6.85449C70.7171 6.85449 70.1696 7.02441 69.6787 7.36426C69.1878 7.7041 68.7725 8.26107 68.4326 9.03516C68.0928 9.79036 67.8285 10.791 67.6396 12.0371C67.4508 13.2643 67.3564 14.7842 67.3564 16.5967V26.0557C67.3564 27.887 67.4508 29.4352 67.6396 30.7002C67.8285 31.9463 68.0928 32.9564 68.4326 33.7305C68.7913 34.5046 69.2161 35.0615 69.707 35.4014C70.1979 35.7412 70.7549 35.9111 71.3779 35.9111C71.9821 35.9111 72.5202 35.7412 72.9922 35.4014C73.4831 35.0615 73.8984 34.5046 74.2383 33.7305C74.5781 32.9564 74.833 31.9463 75.0029 30.7002C75.1917 29.4352 75.2861 27.887 75.2861 26.0557V16.5967Z" fill="url(#paint0_linear)"/>
<defs>
<linearGradient id="paint0_linear" x1="-2" y1="2" x2="16.2371" y2="33.256" gradientUnits="userSpaceOnUse">
<stop stop-color="#D10A42"/>
<stop offset="1" stop-color="#0041CA"/>
</linearGradient>
</defs>
</svg>
