<svg width="103" height="53" viewBox="0 0 103 53" fill="none" xmlns="http://www.w3.org/2000/svg">
<path d="M10.0298 22.2896H14.7793C16.582 22.2896 17.8994 21.6655 18.7314 20.4175C19.5866 19.1463 20.0142 17.4591 20.0142 15.356C20.0142 14.4315 19.9102 13.5879 19.7021 12.8252C19.5173 12.0394 19.2168 11.3691 18.8008 10.8145C18.4079 10.2367 17.911 9.78597 17.3101 9.4624C16.7091 9.13883 16.0158 8.97705 15.23 8.97705C14.606 8.97705 14.005 9.10417 13.4272 9.3584C12.8726 9.61263 12.3872 9.98242 11.9712 10.4678C11.5552 10.9531 11.2201 11.5425 10.9658 12.2358C10.7116 12.9292 10.5845 13.715 10.5845 14.5933H0.773438C0.773438 12.5132 1.14323 10.6296 1.88281 8.94238C2.6224 7.2321 3.62777 5.7876 4.89893 4.60889C6.17008 3.40706 7.66081 2.48258 9.37109 1.83545C11.1045 1.1652 12.965 0.830078 14.9526 0.830078C17.1483 0.830078 19.159 1.14209 20.9849 1.76611C22.8107 2.36702 24.3708 3.27995 25.665 4.50488C26.9824 5.70671 27.9993 7.20898 28.7158 9.01172C29.4554 10.7913 29.8252 12.8599 29.8252 15.2173C29.8252 16.3267 29.675 17.4129 29.3745 18.4761C29.0972 19.5161 28.6812 20.5099 28.1265 21.4575C27.5718 22.382 26.89 23.2487 26.0811 24.0576C25.2952 24.8434 24.3823 25.5137 23.3423 26.0684C25.7228 27.0853 27.4909 28.6107 28.6465 30.6445C29.8252 32.6784 30.4146 35.082 30.4146 37.8555C30.4146 40.2129 30.0101 42.3161 29.2012 44.165C28.4154 46.014 27.3291 47.5741 25.9424 48.8452C24.5557 50.0933 22.9147 51.0524 21.0195 51.7227C19.1243 52.3698 17.0789 52.6934 14.8833 52.6934C13.0343 52.6934 11.2316 52.4045 9.4751 51.8267C7.7417 51.2489 6.1932 50.359 4.82959 49.1572C3.4891 47.9554 2.40283 46.4531 1.5708 44.6504C0.73877 42.8245 0.322754 40.6636 0.322754 38.1675H10.1338C10.1338 39.092 10.2609 39.9471 10.5151 40.7329C10.7694 41.4956 11.116 42.1659 11.5552 42.7437C11.9943 43.2983 12.5143 43.7375 13.1152 44.061C13.7393 44.3846 14.4211 44.5464 15.1606 44.5464C16.0158 44.5464 16.7785 44.3846 17.4487 44.061C18.119 43.7375 18.6852 43.2752 19.1475 42.6743C19.6328 42.0734 20.0026 41.3569 20.2568 40.5249C20.5111 39.6698 20.6382 38.7222 20.6382 37.6821C20.6382 35.0243 20.1182 33.1175 19.0781 31.9619C18.0612 30.7832 16.6283 30.1938 14.7793 30.1938H10.0298V22.2896ZM38.2148 27.1777L40.7109 1.52344H65.1519V9.91309H48.7539L47.8525 20.7295C48.1299 20.5446 48.465 20.3481 48.8579 20.1401C49.2508 19.909 49.7015 19.701 50.21 19.5161C50.7184 19.3081 51.2616 19.1463 51.8394 19.0308C52.4403 18.8921 53.0643 18.8228 53.7114 18.8228C55.8146 18.8228 57.6751 19.2041 59.293 19.9668C60.9108 20.7295 62.2629 21.8389 63.3491 23.2949C64.4585 24.751 65.2905 26.5306 65.8452 28.6338C66.423 30.737 66.7119 33.1291 66.7119 35.8101C66.7119 38.0519 66.4115 40.1898 65.8105 42.2236C65.2096 44.2575 64.2967 46.0487 63.0718 47.5972C61.8468 49.1457 60.3099 50.3822 58.4609 51.3066C56.612 52.2311 54.4395 52.6934 51.9434 52.6934C50.0713 52.6934 48.257 52.3698 46.5005 51.7227C44.744 51.0524 43.1724 50.0817 41.7856 48.8105C40.422 47.5394 39.3242 45.9909 38.4922 44.165C37.6602 42.3392 37.2326 40.2591 37.2095 37.9248H46.9165C47.0783 40.028 47.5983 41.6574 48.4766 42.813C49.3548 43.9686 50.4873 44.5464 51.874 44.5464C52.7985 44.5464 53.5843 44.3037 54.2314 43.8184C54.8786 43.333 55.3986 42.6743 55.7915 41.8423C56.2075 41.0103 56.4964 40.028 56.6582 38.8955C56.8431 37.763 56.9355 36.5381 56.9355 35.2207C56.9355 33.9033 56.82 32.7015 56.5889 31.6152C56.3577 30.529 55.988 29.6045 55.4795 28.8418C54.9941 28.0791 54.3701 27.4897 53.6074 27.0737C52.8678 26.6346 51.978 26.415 50.938 26.415C50.2446 26.415 49.6322 26.4959 49.1006 26.6577C48.5921 26.8195 48.1414 27.0275 47.7485 27.2817C47.3787 27.536 47.0552 27.8364 46.7778 28.1831C46.5005 28.5067 46.2463 28.8418 46.0151 29.1885L38.2148 27.1777ZM102.455 31.1299C102.455 34.9202 102.096 38.179 101.38 40.9062C100.663 43.6104 99.658 45.8407 98.3638 47.5972C97.0695 49.3306 95.521 50.6133 93.7183 51.4453C91.9386 52.2773 89.9741 52.6934 87.8247 52.6934C85.6753 52.6934 83.6992 52.2773 81.8965 51.4453C80.0938 50.6133 78.5452 49.3306 77.251 47.5972C75.9567 45.8407 74.9398 43.6104 74.2002 40.9062C73.4837 38.179 73.1255 34.9202 73.1255 31.1299V22.3242C73.1255 18.557 73.4837 15.3213 74.2002 12.6172C74.9167 9.88997 75.922 7.65967 77.2163 5.92627C78.5106 4.16976 80.0475 2.88704 81.8271 2.07812C83.6299 1.24609 85.606 0.830078 87.7554 0.830078C89.9048 0.830078 91.8809 1.24609 93.6836 2.07812C95.4863 2.88704 97.0348 4.16976 98.3291 5.92627C99.6234 7.65967 100.629 9.88997 101.345 12.6172C102.085 15.3213 102.455 18.557 102.455 22.3242V31.1299ZM92.6089 20.9028C92.6089 18.6841 92.4933 16.8236 92.2622 15.3213C92.0311 13.7959 91.7075 12.571 91.2915 11.6465C90.8755 10.6989 90.367 10.0171 89.7661 9.60107C89.1652 9.18506 88.495 8.97705 87.7554 8.97705C87.0158 8.97705 86.3455 9.18506 85.7446 9.60107C85.1437 10.0171 84.6353 10.6989 84.2192 11.6465C83.8032 12.571 83.4797 13.7959 83.2485 15.3213C83.0174 16.8236 82.9019 18.6841 82.9019 20.9028V32.4819C82.9019 34.7238 83.0174 36.619 83.2485 38.1675C83.4797 39.6929 83.8032 40.9294 84.2192 41.877C84.6584 42.8245 85.1784 43.5063 85.7793 43.9224C86.3802 44.3384 87.062 44.5464 87.8247 44.5464C88.5643 44.5464 89.223 44.3384 89.8008 43.9224C90.4017 43.5063 90.9102 42.8245 91.3262 41.877C91.7422 40.9294 92.0542 39.6929 92.2622 38.1675C92.4933 36.619 92.6089 34.7238 92.6089 32.4819V20.9028Z" fill="url(#paint0_linear)"/>
<defs>
<linearGradient id="paint0_linear" x1="-2" y1="3" x2="21.4754" y2="70.4479" gradientUnits="userSpaceOnUse">
<stop stop-color="#D10A42"/>
<stop offset="1" stop-color="#0041CA"/>
</linearGradient>
</defs>
</svg>
