<svg width="102" height="53" viewBox="0 0 102 53" fill="none" xmlns="http://www.w3.org/2000/svg">
<path d="M7.05371 44.061C10.9365 44.061 13.8486 43.0788 15.79 41.1143C17.7546 39.1497 18.9333 36.2723 19.3262 32.4819C18.3786 33.4526 17.327 34.2269 16.1714 34.8047C15.0158 35.3825 13.7909 35.6714 12.4966 35.6714C10.4858 35.6714 8.70622 35.2438 7.15771 34.3887C5.60921 33.5335 4.31494 32.3548 3.2749 30.8525C2.23486 29.3271 1.44906 27.5244 0.91748 25.4443C0.385905 23.3643 0.120117 21.1108 0.120117 18.6841C0.120117 16.2342 0.455241 13.9346 1.12549 11.7852C1.81885 9.61263 2.78955 7.71745 4.0376 6.09961C5.30876 4.48177 6.8457 3.19906 8.64844 2.25146C10.4512 1.30387 12.4619 0.830078 14.6807 0.830078C16.8532 0.830078 18.8408 1.32699 20.6436 2.3208C22.4463 3.2915 23.9832 4.67822 25.2544 6.48096C26.5256 8.28369 27.5078 10.4562 28.2012 12.9985C28.9176 15.5177 29.2759 18.3258 29.2759 21.4229V24.959C29.2759 29.1191 28.8136 32.8979 27.8892 36.2954C26.9647 39.6698 25.578 42.5703 23.729 44.9971C21.88 47.4007 19.5688 49.2612 16.7954 50.5786C14.0451 51.8729 10.8325 52.52 7.15771 52.52H6.53369V44.061H7.05371ZM14.9927 27.9751C15.9865 27.9751 16.8647 27.6053 17.6274 26.8657C18.3901 26.1261 19.0026 25.2017 19.4648 24.0923V19.5854C19.4648 17.8058 19.3377 16.2573 19.0835 14.9399C18.8293 13.5994 18.471 12.4901 18.0088 11.6118C17.5697 10.7336 17.0496 10.0749 16.4487 9.63574C15.8709 9.19661 15.2585 8.97705 14.6113 8.97705C13.8486 8.97705 13.1668 9.25439 12.5659 9.80908C11.9881 10.3407 11.5028 11.0571 11.1099 11.9585C10.717 12.8368 10.4165 13.8537 10.2085 15.0093C10.0005 16.1649 9.89648 17.3551 9.89648 18.5801C9.89648 19.8743 9.98893 21.0877 10.1738 22.2202C10.3818 23.3527 10.6938 24.3465 11.1099 25.2017C11.5259 26.0568 12.0575 26.7386 12.7046 27.2471C13.3517 27.7324 14.1144 27.9751 14.9927 27.9751ZM65.5386 31.1299C65.5386 34.9202 65.1803 38.179 64.4639 40.9062C63.7474 43.6104 62.742 45.8407 61.4478 47.5972C60.1535 49.3306 58.605 50.6133 56.8022 51.4453C55.0226 52.2773 53.0581 52.6934 50.9087 52.6934C48.7593 52.6934 46.7832 52.2773 44.9805 51.4453C43.1777 50.6133 41.6292 49.3306 40.335 47.5972C39.0407 45.8407 38.0238 43.6104 37.2842 40.9062C36.5677 38.179 36.2095 34.9202 36.2095 31.1299V22.3242C36.2095 18.557 36.5677 15.3213 37.2842 12.6172C38.0007 9.88997 39.006 7.65967 40.3003 5.92627C41.5946 4.16976 43.1315 2.88704 44.9111 2.07812C46.7139 1.24609 48.6899 0.830078 50.8394 0.830078C52.9888 0.830078 54.9648 1.24609 56.7676 2.07812C58.5703 2.88704 60.1188 4.16976 61.4131 5.92627C62.7074 7.65967 63.7127 9.88997 64.4292 12.6172C65.1688 15.3213 65.5386 18.557 65.5386 22.3242V31.1299ZM55.6929 20.9028C55.6929 18.6841 55.5773 16.8236 55.3462 15.3213C55.1151 13.7959 54.7915 12.571 54.3755 11.6465C53.9595 10.6989 53.451 10.0171 52.8501 9.60107C52.2492 9.18506 51.5789 8.97705 50.8394 8.97705C50.0998 8.97705 49.4295 9.18506 48.8286 9.60107C48.2277 10.0171 47.7192 10.6989 47.3032 11.6465C46.8872 12.571 46.5636 13.7959 46.3325 15.3213C46.1014 16.8236 45.9858 18.6841 45.9858 20.9028V32.4819C45.9858 34.7238 46.1014 36.619 46.3325 38.1675C46.5636 39.6929 46.8872 40.9294 47.3032 41.877C47.7424 42.8245 48.2624 43.5063 48.8633 43.9224C49.4642 44.3384 50.146 44.5464 50.9087 44.5464C51.6483 44.5464 52.307 44.3384 52.8848 43.9224C53.4857 43.5063 53.9941 42.8245 54.4102 41.877C54.8262 40.9294 55.1382 39.6929 55.3462 38.1675C55.5773 36.619 55.6929 34.7238 55.6929 32.4819V20.9028ZM101.455 31.1299C101.455 34.9202 101.096 38.179 100.38 40.9062C99.6634 43.6104 98.658 45.8407 97.3638 47.5972C96.0695 49.3306 94.521 50.6133 92.7183 51.4453C90.9386 52.2773 88.9741 52.6934 86.8247 52.6934C84.6753 52.6934 82.6992 52.2773 80.8965 51.4453C79.0938 50.6133 77.5452 49.3306 76.251 47.5972C74.9567 45.8407 73.9398 43.6104 73.2002 40.9062C72.4837 38.179 72.1255 34.9202 72.1255 31.1299V22.3242C72.1255 18.557 72.4837 15.3213 73.2002 12.6172C73.9167 9.88997 74.922 7.65967 76.2163 5.92627C77.5106 4.16976 79.0475 2.88704 80.8271 2.07812C82.6299 1.24609 84.606 0.830078 86.7554 0.830078C88.9048 0.830078 90.8809 1.24609 92.6836 2.07812C94.4863 2.88704 96.0348 4.16976 97.3291 5.92627C98.6234 7.65967 99.6287 9.88997 100.345 12.6172C101.085 15.3213 101.455 18.557 101.455 22.3242V31.1299ZM91.6089 20.9028C91.6089 18.6841 91.4933 16.8236 91.2622 15.3213C91.0311 13.7959 90.7075 12.571 90.2915 11.6465C89.8755 10.6989 89.367 10.0171 88.7661 9.60107C88.1652 9.18506 87.495 8.97705 86.7554 8.97705C86.0158 8.97705 85.3455 9.18506 84.7446 9.60107C84.1437 10.0171 83.6353 10.6989 83.2192 11.6465C82.8032 12.571 82.4797 13.7959 82.2485 15.3213C82.0174 16.8236 81.9019 18.6841 81.9019 20.9028V32.4819C81.9019 34.7238 82.0174 36.619 82.2485 38.1675C82.4797 39.6929 82.8032 40.9294 83.2192 41.877C83.6584 42.8245 84.1784 43.5063 84.7793 43.9224C85.3802 44.3384 86.062 44.5464 86.8247 44.5464C87.5643 44.5464 88.223 44.3384 88.8008 43.9224C89.4017 43.5063 89.9102 42.8245 90.3262 41.877C90.7422 40.9294 91.0542 39.6929 91.2622 38.1675C91.4933 36.619 91.6089 34.7238 91.6089 32.4819V20.9028Z" fill="url(#paint0_linear)"/>
<defs>
<linearGradient id="paint0_linear" x1="-3" y1="3" x2="19.4438" y2="41.104" gradientUnits="userSpaceOnUse">
<stop stop-color="#D10A42"/>
<stop offset="1" stop-color="#0041CA"/>
</linearGradient>
</defs>
</svg>
