<svg width="65" height="52" viewBox="0 0 65 52" fill="none" xmlns="http://www.w3.org/2000/svg">
<path d="M1.29883 26.1777L3.79492 0.523438H28.2358V8.91309H11.8379L10.9365 19.7295C11.2139 19.5446 11.549 19.3481 11.9419 19.1401C12.3348 18.909 12.7855 18.701 13.2939 18.5161C13.8024 18.3081 14.3455 18.1463 14.9233 18.0308C15.5243 17.8921 16.1483 17.8228 16.7954 17.8228C18.8986 17.8228 20.7591 18.2041 22.377 18.9668C23.9948 19.7295 25.3468 20.8389 26.4331 22.2949C27.5425 23.751 28.3745 25.5306 28.9292 27.6338C29.507 29.737 29.7959 32.1291 29.7959 34.8101C29.7959 37.0519 29.4954 39.1898 28.8945 41.2236C28.2936 43.2575 27.3807 45.0487 26.1558 46.5972C24.9308 48.1457 23.3939 49.3822 21.5449 50.3066C19.696 51.2311 17.5234 51.6934 15.0273 51.6934C13.1553 51.6934 11.341 51.3698 9.58447 50.7227C7.82796 50.0524 6.25635 49.0817 4.86963 47.8105C3.50602 46.5394 2.4082 44.9909 1.57617 43.165C0.744141 41.3392 0.316569 39.2591 0.293457 36.9248H10.0005C10.1623 39.028 10.6823 40.6574 11.5605 41.813C12.4388 42.9686 13.5713 43.5464 14.958 43.5464C15.8825 43.5464 16.6683 43.3037 17.3154 42.8184C17.9626 42.333 18.4826 41.6743 18.8755 40.8423C19.2915 40.0103 19.5804 39.028 19.7422 37.8955C19.9271 36.763 20.0195 35.5381 20.0195 34.2207C20.0195 32.9033 19.904 31.7015 19.6729 30.6152C19.4417 29.529 19.0719 28.6045 18.5635 27.8418C18.0781 27.0791 17.4541 26.4897 16.6914 26.0737C15.9518 25.6346 15.062 25.415 14.022 25.415C13.3286 25.415 12.7161 25.4959 12.1846 25.6577C11.6761 25.8195 11.2254 26.0275 10.8325 26.2817C10.4627 26.536 10.1392 26.8364 9.86182 27.1831C9.58447 27.5067 9.33024 27.8418 9.09912 28.1885L1.29883 26.1777ZM54.4102 22.7109H64.2212V31.8286H54.4102V45.9385H45.1191V31.8286H35.1348V22.7109H45.1191V9.19043H54.4102V22.7109Z" fill="url(#paint0_linear)"/>
<defs>
<linearGradient id="paint0_linear" x1="-3" y1="2" x2="28.5181" y2="60.6935" gradientUnits="userSpaceOnUse">
<stop stop-color="#D10A42"/>
<stop offset="1" stop-color="#0041CA"/>
</linearGradient>
</defs>
</svg>
