<svg width="67" height="53" viewBox="0 0 67 53" fill="none" xmlns="http://www.w3.org/2000/svg">
<path d="M30.8999 7.17432L14.9526 52H4.58691L20.6035 9.67041H0.357422V1.52344H30.8999V7.17432ZM66.5386 31.1299C66.5386 34.9202 66.1803 38.179 65.4639 40.9062C64.7474 43.6104 63.742 45.8407 62.4478 47.5972C61.1535 49.3306 59.605 50.6133 57.8022 51.4453C56.0226 52.2773 54.0581 52.6934 51.9087 52.6934C49.7593 52.6934 47.7832 52.2773 45.9805 51.4453C44.1777 50.6133 42.6292 49.3306 41.335 47.5972C40.0407 45.8407 39.0238 43.6104 38.2842 40.9062C37.5677 38.179 37.2095 34.9202 37.2095 31.1299V22.3242C37.2095 18.557 37.5677 15.3213 38.2842 12.6172C39.0007 9.88997 40.006 7.65967 41.3003 5.92627C42.5946 4.16976 44.1315 2.88704 45.9111 2.07812C47.7139 1.24609 49.6899 0.830078 51.8394 0.830078C53.9888 0.830078 55.9648 1.24609 57.7676 2.07812C59.5703 2.88704 61.1188 4.16976 62.4131 5.92627C63.7074 7.65967 64.7127 9.88997 65.4292 12.6172C66.1688 15.3213 66.5386 18.557 66.5386 22.3242V31.1299ZM56.6929 20.9028C56.6929 18.6841 56.5773 16.8236 56.3462 15.3213C56.1151 13.7959 55.7915 12.571 55.3755 11.6465C54.9595 10.6989 54.451 10.0171 53.8501 9.60107C53.2492 9.18506 52.5789 8.97705 51.8394 8.97705C51.0998 8.97705 50.4295 9.18506 49.8286 9.60107C49.2277 10.0171 48.7192 10.6989 48.3032 11.6465C47.8872 12.571 47.5636 13.7959 47.3325 15.3213C47.1014 16.8236 46.9858 18.6841 46.9858 20.9028V32.4819C46.9858 34.7238 47.1014 36.619 47.3325 38.1675C47.5636 39.6929 47.8872 40.9294 48.3032 41.877C48.7424 42.8245 49.2624 43.5063 49.8633 43.9224C50.4642 44.3384 51.146 44.5464 51.9087 44.5464C52.6483 44.5464 53.307 44.3384 53.8848 43.9224C54.4857 43.5063 54.9941 42.8245 55.4102 41.877C55.8262 40.9294 56.1382 39.6929 56.3462 38.1675C56.5773 36.619 56.6929 34.7238 56.6929 32.4819V20.9028Z" fill="url(#paint0_linear)"/>
<defs>
<linearGradient id="paint0_linear" x1="-2" y1="3" x2="29.023" y2="62.4222" gradientUnits="userSpaceOnUse">
<stop stop-color="#D10A42"/>
<stop offset="1" stop-color="#0041CA"/>
</linearGradient>
</defs>
</svg>
